<?xml version="1.0" encoding="iso-8859-1"?>
<!-- Generator: Adobe Illustrator 19.1.0, SVG Export Plug-In . SVG Version: 6.00 Build 0)  -->
<svg version="1.1" id="&#x56FE;&#x5C42;_1" xmlns="http://www.w3.org/2000/svg" xmlns:xlink="http://www.w3.org/1999/xlink" x="0px"
	 y="0px" viewBox="0 0 509.616 156.77" style="enable-background:new 0 0 509.616 156.77;" xml:space="preserve">
<g>
	<g>
		<polygon style="fill:#005BAB;" points="33.942,19.597 0,39.193 33.942,58.789 67.883,39.193 67.883,0 		"/>
		<g>
			<polygon style="fill:#004097;" points="0,117.578 33.942,137.174 67.883,156.77 67.883,117.578 33.942,97.981 			"/>
			<polygon style="fill:#004097;" points="101.825,19.597 67.883,0 67.883,39.193 101.825,58.789 135.767,39.193 			"/>
		</g>
		<polygon style="fill:#1B81C5;" points="67.883,78.385 33.942,58.789 0,39.193 0,78.385 33.942,97.981 67.883,117.578 
			101.825,97.981 		"/>
		<polygon style="fill:#005BAB;" points="101.825,58.789 67.883,39.193 67.883,78.385 101.825,97.981 67.883,117.578 67.883,156.77 
			101.825,137.174 135.767,117.578 135.767,78.385 		"/>
	</g>
	<g>
		<polygon style="fill:#373838;" points="176.781,121.649 178.179,118.697 160.557,118.697 160.557,128.528 172.21,128.528 
			172.21,132.58 159.992,132.58 159.992,135.501 178.116,135.501 178.116,125.513 166.62,125.513 166.62,121.649 		"/>
		<polygon style="fill:#373838;" points="186.754,111.536 180.755,111.536 180.755,135.501 186.754,135.501 186.754,121.681 
			192.408,121.681 192.408,135.501 198.439,135.501 198.439,118.697 186.754,118.697 		"/>
		<path style="fill:#373838;" d="M207.044,129.094h11.497v-10.396h-17.527v16.804h16.85l1.399-2.953h-12.219V129.094z
			 M207.044,121.743h5.497v4.304h-5.497V121.743z"/>
		<polygon style="fill:#373838;" points="221.272,118.728 221.272,135.501 227.272,135.501 227.272,121.712 233.051,121.712 
			233.051,135.501 239.019,135.501 239.019,118.728 227.272,118.728 		"/>
		<rect x="242.568" y="111.536" style="fill:#373838;" width="6.157" height="23.966"/>
		<path style="fill:#373838;" d="M269.581,118.697h-5.81h-11.496v16.772h11.496h6.216l1.322-2.764h-1.728V118.697z M263.77,132.705
			h-5.623v-11.213h5.623V132.705z"/>
		<polygon style="fill:#373838;" points="272.848,118.728 272.848,135.501 278.847,135.501 278.847,121.712 284.626,121.712 
			284.626,135.501 290.594,135.501 290.594,118.728 278.847,118.728 		"/>
		<polygon style="fill:#373838;" points="311.952,118.697 304.885,118.697 302.435,122.026 299.954,118.697 292.761,118.697 
			298.791,126.644 292.038,135.501 299.138,135.501 302.341,131.292 305.577,135.501 312.769,135.501 305.985,126.644 		"/>
		<polygon style="fill:#373838;" points="325.899,132.455 320.15,132.455 320.15,118.697 314.214,118.697 314.214,135.501 
			325.899,135.501 331.898,135.501 331.898,118.697 325.899,118.697 		"/>
		<path style="fill:#373838;" d="M340.505,129.094h11.496v-10.396h-17.527v16.804h16.839l1.411-2.953h-12.219V129.094z
			 M340.505,121.743h5.497v4.304h-5.497V121.743z"/>
		<polygon style="fill:#373838;" points="363.59,127.868 359.822,118.697 353.539,118.697 360.418,135.344 358.722,139.082 
			354.199,139.082 354.202,142.003 363.622,142.003 373.767,118.697 367.58,118.697 		"/>
		<polygon style="fill:#373838;" points="386.834,132.455 381.086,132.455 381.086,118.697 375.15,118.697 375.15,135.501 
			386.834,135.501 392.834,135.501 392.834,118.697 386.834,118.697 		"/>
		<path style="fill:#373838;" d="M412.716,118.697h-5.81h-11.496v16.772h11.496h6.223l1.314-2.764h-1.728V118.697z M406.905,132.705
			h-5.623v-11.213h5.623V132.705z"/>
		<polygon style="fill:#373838;" points="421.954,118.728 415.983,118.728 415.983,135.501 421.982,135.501 421.982,121.712 
			427.761,121.712 427.761,135.501 433.729,135.501 433.729,118.728 421.982,118.728 		"/>
		<rect x="436.461" y="129.879" style="fill:#373838;" width="5.842" height="5.623"/>
		<polygon style="fill:#373838;" points="450.972,121.681 462.123,121.681 462.123,118.728 445.036,118.728 445.036,135.501 
			461.179,135.501 462.626,132.486 450.972,132.486 		"/>
		<path style="fill:#373838;" d="M464.824,135.501h17.684v-16.804h-17.684V135.501z M470.824,121.681h5.717v10.9h-5.717V121.681z"/>
		<polygon style="fill:#373838;" points="500.223,118.697 490.832,118.697 485.084,118.697 485.084,135.469 490.832,135.469 
			490.832,121.712 494.413,121.712 494.413,135.469 500.223,135.469 500.223,121.712 503.805,121.712 503.805,135.469 
			509.616,135.469 509.616,118.697 		"/>
	</g>
	<g>
		<path style="fill:#373838;" d="M427.449,28.498v4.927v69.24h11.816V91.548h6.117h11.816v-8.635V62.487v-8.635V33.425v-1.26V24.79
			h-29.75V28.498z M445.383,53.852h-5.017v8.635h5.017v20.427h-6.117V33.425h6.117V53.852z"/>
		<rect x="464.053" y="49.414" style="fill:#373838;" width="39.829" height="8.635"/>
		<polygon style="fill:#373838;" points="499.199,94.03 499.199,72.198 508.382,72.198 508.382,63.564 459.554,63.564 
			459.554,72.198 468.913,72.198 460.819,102.582 472.785,102.582 480.879,72.198 487.383,72.198 487.383,94.03 487.383,102.025 
			487.383,102.665 506.616,102.665 509.616,94.03 		"/>
		<polygon style="fill:#373838;" points="241.943,70.758 241.943,62.123 218.913,62.123 218.913,55.633 207.097,55.633 
			207.097,62.123 184.068,62.123 184.068,70.758 207.097,70.758 207.097,102.665 218.913,102.665 218.913,70.758 		"/>
		<polygon style="fill:#373838;" points="179.808,42.752 171.808,23.05 159.992,23.05 167.992,42.752 		"/>
		<polygon style="fill:#373838;" points="162.055,45.3 170.055,65.002 181.871,65.002 173.871,45.3 		"/>
		<polygon style="fill:#373838;" points="188.669,57.25 200.486,57.25 208.486,37.548 196.669,37.548 196.391,38.234 
			196.391,31.685 229.62,31.685 229.62,38.234 229.341,37.548 217.525,37.548 225.525,57.25 237.341,57.25 231.116,41.919 
			241.436,41.919 241.436,31.685 241.436,24.795 241.436,23.05 184.574,23.05 184.574,24.795 184.574,31.685 184.574,41.919 
			194.894,41.919 		"/>
		<polygon style="fill:#373838;" points="406.462,59.587 406.462,50.952 353.136,50.952 353.136,59.587 391.092,59.587 
			376.18,68.302 338.47,68.302 338.47,76.936 375.063,76.936 375.063,94.067 364.287,94.067 367.287,102.702 386.879,102.702 
			386.879,94.415 386.879,94.067 386.879,76.936 420.761,76.936 420.761,68.302 392.114,68.302 		"/>
		<polygon style="fill:#373838;" points="169.884,68.893 169.878,68.893 161.878,102.665 173.694,102.665 173.865,101.947 
			173.871,101.947 181.871,68.175 170.055,68.175 		"/>
		<polygon style="fill:#373838;" points="190.507,73.592 182.507,101.082 182.508,101.082 182.357,101.603 194.173,101.603 
			202.173,74.113 202.171,74.113 202.323,73.592 		"/>
		<polygon style="fill:#373838;" points="243.503,101.082 235.503,73.592 223.687,73.592 223.839,74.113 223.839,74.113 
			231.839,101.603 243.655,101.603 243.503,101.082 		"/>
		<path style="fill:#373838;" d="M328.182,81.841v-7.063v-1.572h-73.966v1.042v7.593v12.226h-4.029v8.635h82.024v-8.635h-4.029
			V81.841z M316.366,94.067h-8.9V81.841h8.9V94.067z M295.649,94.067h-8.9V81.841h8.9V94.067z M266.032,81.841h8.9v12.226h-8.9
			V81.841z"/>
		<polygon style="fill:#373838;" points="314.649,22.15 302.832,22.15 302.832,26.48 279.565,26.48 279.565,22.15 267.749,22.15 
			267.749,26.48 249.745,26.48 249.745,35.115 267.749,35.115 267.749,39.274 279.565,39.274 279.565,35.115 302.832,35.115 
			302.832,39.274 314.649,39.274 314.649,35.115 332.652,35.115 332.652,26.48 314.649,26.48 		"/>
		<polygon style="fill:#373838;" points="350.437,43.809 408.087,43.809 408.087,52.371 419.903,52.371 419.903,43.809 
			419.903,35.247 419.903,35.174 409.798,35.174 415.206,21.854 403.39,21.854 397.981,35.174 338.62,35.174 338.62,35.247 
			338.62,43.809 338.62,52.371 350.437,52.371 		"/>
		<polygon style="fill:#373838;" points="472.12,37.091 495.816,37.091 495.816,44.992 507.632,44.992 507.632,37.091 
			507.632,28.457 495.816,28.457 490.052,28.457 487.416,21.964 475.599,21.964 478.236,28.457 472.12,28.457 460.304,28.457 
			460.304,37.091 460.304,44.992 472.12,44.992 		"/>
		<polygon style="fill:#373838;" points="319.554,57.27 307.737,57.27 312.923,70.04 312.924,70.04 313.628,71.774 325.444,71.774 
			320.259,59.004 320.258,59.004 		"/>
		<rect x="272.749" y="41.05" style="fill:#373838;" width="11.816" height="30.353"/>
		<rect x="253.932" y="44.498" style="fill:#373838;" width="11.816" height="23.456"/>
		<polygon style="fill:#373838;" points="298.424,41.279 287.607,67.912 299.423,67.912 304.664,55.008 332.194,55.008 
			332.194,46.373 308.171,46.373 310.24,41.279 		"/>
		<polygon style="fill:#373838;" points="365.214,33.796 360.365,21.854 348.548,21.854 353.397,33.796 		"/>
		<polygon style="fill:#373838;" points="388.132,33.796 383.283,21.854 371.466,21.854 376.316,33.796 		"/>
	</g>
</g>
</svg>
